0
SECTION
2
HEADER
9
$INSUNITS
70
4
9
$ACADVER
1
AC1014
9
$HANDSEED
5
FFFF
0
ENDSEC
0
SECTION
2
TABLES
0
TABLE
2
VPORT
5
8
100
AcDbSymbolTable
0
ENDTAB
0
TABLE
2
LTYPE
5
5
100
AcDbSymbolTable
0
LTYPE
5
14
100
AcDbSymbolTableRecord
100
AcDbLinetypeTableRecord
2
BYBLOCK
70
0
0
LTYPE
5
15
100
AcDbSymbolTableRecord
100
AcDbLinetypeTableRecord
2
BYLAYER
70
0
0
ENDTAB
0
TABLE
2
LAYER
5
2
100
AcDbSymbolTable
70
2
0
LAYER
5
50
100
AcDbSymbolTableRecord
100
AcDbLayerTableRecord
2
0
70
0
6
CONTINUOUS
0
ENDTAB
0
TABLE
2
STYLE
5
3
100
AcDbSymbolTable
70
1
0
STYLE
5
11
100
AcDbSymbolTableRecord
100
AcDbTextStyleTableRecord
2
STANDARD
70
0
0
ENDTAB
0
TABLE
2
VIEW
5
6
100
AcDbSymbolTable
70
0
0
ENDTAB
0
TABLE
2
UCS
5
7
100
AcDbSymbolTable
70
0
0
ENDTAB
0
TABLE
2
APPID
5
9
100
AcDbSymbolTable
70
2
0
APPID
5
12
100
AcDbSymbolTableRecord
100
AcDbRegAppTableRecord
2
ACAD
70
0
0
ENDTAB
0
TABLE
2
DIMSTYLE
5
A
100
AcDbSymbolTable
70
1
0
ENDTAB
0
TABLE
2
BLOCK_RECORD
5
1
100
AcDbSymbolTable
70
1
0
BLOCK_RECORD
5
1F
100
AcDbSymbolTableRecord
100
AcDbBlockTableRecord
2
*MODEL_SPACE
0
BLOCK_RECORD
5
1B
100
AcDbSymbolTableRecord
100
AcDbBlockTableRecord
2
*PAPER_SPACE
0
ENDTAB
0
ENDSEC
0
SECTION
2
BLOCKS
0
BLOCK
5
20
100
AcDbEntity
100
AcDbBlockBegin
2
*MODEL_SPACE
0
ENDBLK
5
21
100
AcDbEntity
100
AcDbBlockEnd
0
BLOCK
5
1C
100
AcDbEntity
100
AcDbBlockBegin
2
*PAPER_SPACE
0
ENDBLK
5
1D
100
AcDbEntity
100
AcDbBlockEnd
0
ENDSEC
0
SECTION
2
ENTITIES
0
ARC
5
100
100
AcDbEntity
8
0
100
AcDbCircle
10
4.1455852798999899
20
29.93434571897998
30
0
40
2.0000000004061045
100
AcDbArc
50
1.6580899205553454
51
44.999999999999964
0
LINE
5
101
100
AcDbEntity
8
0
100
AcDbLine
10
-5.5905064442199688
20
-6.9059950960000123
30
0
11
-0.64075897517998004
21
-1.9562476269599878
31
0
0
LINE
5
102
100
AcDbEntity
8
0
100
AcDbLine
10
-5.9617375051599613
20
-46.562751395739987
30
0
11
-0.64075897517996561
21
-41.241772865759991
31
0
0
LINE
5
103
100
AcDbEntity
8
0
100
AcDbLine
10
2.1876681492600292
20
0.87217949747998724
30
0
11
7.1374156157600455
21
5.821926966520012
31
0
0
LWPOLYLINE
5
104
100
AcDbEntity
8
0
100
AcDbPolyline
90
4
70
1
43
0.0
10
-10.728652195339986
20
27.807997957459996
10
-10.728652195339983
20
32.583197957459987
42
-0.99999999999999989
10
-8.1886521953400049
20
32.583197957459987
10
-8.1886521953400013
20
27.807997957459996
42
-0.99999999999999989
0
LWPOLYLINE
5
105
100
AcDbEntity
8
0
100
AcDbPolyline
90
4
70
1
43
0.0
10
10.861347804659992
20
32.583197957459987
10
10.861347804659998
20
27.807997957459996
42
-0.99999999999999989
10
8.3213478046600198
20
27.807997957459996
10
8.3213478046600251
20
32.583197957459987
42
-0.99999999999999989
0
LINE
5
106
100
AcDbEntity
8
0
100
AcDbLine
10
-5.9617375051599613
20
-40.466751395739962
30
0
11
-0.64075897517996672
21
-35.145772865759987
31
0
0
LINE
5
107
100
AcDbEntity
8
0
100
AcDbLine
10
-15.880444038039947
20
-64.093166085919947
30
0
11
-10.192391152039949
21
-64.093166085919961
31
0
0
LINE
5
108
100
AcDbEntity
8
0
100
AcDbLine
10
10.325086761360032
20
-64.093166085919961
30
0
11
16.013139647360024
21
-64.093166085919947
31
0
0
CIRCLE
5
109
100
AcDbEntity
8
0
100
AcDbCircle
10
-15.933652194259945
20
-61.09316608643995
30
0
40
1.5000000000000202
0
ARC
5
110
100
AcDbEntity
8
0
100
AcDbCircle
10
388.32864122263993
20
-22.651562426239863
30
0
40
371.24186296228282
100
AcDbArc
50
175.51606061220002
51
185.88759616520008
0
ARC
5
111
100
AcDbEntity
8
0
100
AcDbCircle
10
-388.19594561331985
20
-22.65156242624013
30
0
40
371.24186296228282
100
AcDbArc
50
-5.8875961651999447
51
4.4839393877999827
0
ARC
5
112
100
AcDbEntity
8
0
100
AcDbCircle
10
4.2241625344800156
20
28.480597958459999
30
0
40
2.0000000000000018
100
AcDbArc
50
-90
51
4.5297349538000278
0
ARC
5
113
100
AcDbEntity
8
0
100
AcDbCircle
10
0.066347804659995249
20
64.535033383099972
30
0
40
19.685000000000052
100
AcDbArc
50
250.74752224549994
51
289.25247775450009
0
ARC
5
114
100
AcDbEntity
8
0
100
AcDbCircle
10
33.184340842099985
20
30.774936676859994
30
0
40
20.700919395710635
100
AcDbArc
50
180
51
209.09526418912586
0
ARC
5
115
100
AcDbEntity
8
0
100
AcDbCircle
10
0.066347804660003021
20
38.50371125483997
30
0
40
2.0000000000000013
100
AcDbArc
50
45.000000000000327
51
135.00000000000017
0
ARC
5
116
100
AcDbEntity
8
0
100
AcDbCircle
10
0.066347804660007462
20
34.013583194219976
30
0
40
1.9999999999999987
100
AcDbArc
50
45.000000000000156
51
134.99999999999991
0
ARC
5
117
100
AcDbEntity
8
0
100
AcDbCircle
10
7.2165747767200266
20
44.062772166159981
30
0
40
2.0000000002845084
100
AcDbArc
50
-4.6814363916588899
51
109.25247775450016
0
CIRCLE
5
118
100
AcDbEntity
8
0
100
AcDbCircle
10
-10.370178878759981
20
48.807842414379977
30
0
40
1.4999999999999996
0
ARC
5
119
100
AcDbEntity
8
0
100
AcDbCircle
10
10.502874488079975
20
48.807842414379977
30
0
40
2.9999999999999973
100
AcDbArc
50
-6.4713086976998442
51
123.56815774127031
0
ARC
5
120
100
AcDbEntity
8
0
100
AcDbCircle
10
-7.0838791673999868
20
44.062772166159981
30
0
40
2.0000000000000142
100
AcDbArc
50
70.747522245499667
51
184.68143640030004
0
ARC
5
121
100
AcDbEntity
8
0
100
AcDbCircle
10
-169.35072583701995
20
30.774936676859923
30
0
40
160.80999999999995
100
AcDbArc
50
2.338432152099986
51
4.6814364001925792
0
ARC
5
122
100
AcDbEntity
8
0
100
AcDbCircle
10
169.48342144633989
20
30.774936676860037
30
0
40
156.99999999999991
100
AcDbArc
50
173.52869130229999
51
180
0
ARC
5
123
100
AcDbEntity
8
0
100
AcDbCircle
10
-169.35072583701995
20
30.774936676859923
30
0
40
156.99999999999991
100
AcDbArc
50
0
51
6.4713086977000565
0
ARC
5
124
100
AcDbEntity
8
0
100
AcDbCircle
10
-10.370178878759981
20
48.807842414379977
30
0
40
2.9999999994788289
100
AcDbArc
50
56.431842258729844
51
186.47130869769984
0
ARC
5
125
100
AcDbEntity
8
0
100
AcDbCircle
10
169.48342144633989
20
30.774936676860037
30
0
40
160.80999999999992
100
AcDbArc
50
175.3185635997001
51
177.66156784790005
0
ARC
5
126
100
AcDbEntity
8
0
100
AcDbCircle
10
-11.933652195799933
20
-40.606306102659985
30
0
40
1.0000000000000497
100
AcDbArc
50
-180
51
0
0
LINE
5
127
100
AcDbEntity
8
0
100
AcDbLine
10
-5.9617375051599542
20
-52.658751395739991
30
0
11
-0.64075897517996117
21
-47.337772865759973
31
0
0
LINE
5
128
100
AcDbEntity
8
0
100
AcDbLine
10
5.9472658015000164
20
22.67059795746
30
0
11
-5.8145701921799997
21
22.670597957959991
31
0
0
LINE
5
129
100
AcDbEntity
8
0
100
AcDbLine
10
0.77345458704003089
20
-10.761772865760006
30
0
11
6.0944331144800117
21
-16.082751395739979
31
0
0
ARC
5
130
100
AcDbEntity
8
0
100
AcDbCircle
10
-33.051645232779968
20
30.774936676859966
30
0
40
20.700919395710645
100
AcDbArc
50
-29.095264190899968
51
0
0
ARC
5
131
100
AcDbEntity
8
0
100
AcDbCircle
10
12.066347805120024
20
-36.606306101659982
30
0
40
1.0000000000000142
100
AcDbArc
50
0
51
180
0
LINE
5
132
100
AcDbEntity
8
0
100
AcDbLine
10
0.773454587040032
20
-16.857772865759987
30
0
11
6.0944331144800117
21
-22.178751395739983
31
0
0
LWPOLYLINE
5
133
100
AcDbEntity
8
0
100
AcDbPolyline
90
4
70
1
43
0.0
10
11.516347804660011
20
-17.736452523179981
10
11.516347804660008
20
12.263547476699994
42
-0.99999999999999989
10
14.016347804660008
20
12.263547476699994
10
14.016347804660011
20
-17.736452523179981
42
-0.99999999999999989
0
LINE
5
134
100
AcDbEntity
8
0
100
AcDbLine
10
-0.64075897517996672
20
-38.413345741319979
30
0
11
-7.3759510673799618
21
-45.148537833519995
31
0
0
ARC
5
135
100
AcDbEntity
8
0
100
AcDbCircle
10
10.325086761360032
20
-63.331166085919968
30
0
40
0.76199999911121385
100
AcDbArc
50
184.24802267204981
51
270
0
ARC
5
136
100
AcDbEntity
8
0
100
AcDbCircle
10
16.013139647360024
20
-61.045166085919945
30
0
40
3.0480000000000018
100
AcDbArc
50
-90
51
5.8875961651998221
0
LWPOLYLINE
5
137
100
AcDbEntity
8
0
100
AcDbPolyline
90
4
70
1
43
0.0
10
-11.38365219533998
20
12.263547476699994
10
-11.383652195979952
20
-17.736452523179999
42
-0.99999999999999989
10
-13.88365219469998
20
-17.736452523179999
10
-13.88365219533998
20
12.263547476699994
42
-0.99999999999999989
0
LINE
5
138
100
AcDbEntity
8
0
100
AcDbLine
10
-0.64075897517997449
20
-7.9333457413199948
30
0
11
-7.3759510673799706
21
-14.668537833519997
31
0
0
ARC
5
139
100
AcDbEntity
8
0
100
AcDbCircle
10
0.066347804660021895
20
-8.6404525236999863
30
0
40
1.0000000000000104
100
AcDbArc
50
45.000000000000725
51
134.99999999999929
0
ARC
5
140
100
AcDbEntity
8
0
100
AcDbCircle
10
6.8015398968600209
20
-21.471644613359992
30
0
40
0.999999999999998
100
AcDbArc
50
-135
51
45
0
LINE
5
141
100
AcDbEntity
8
0
100
AcDbLine
10
-5.9617375051599675
20
-16.082751395739979
30
0
11
-0.64075897517997449
21
-10.761772865760006
31
0
0
ARC
5
142
100
AcDbEntity
8
0
100
AcDbCircle
10
-10.192391152039949
20
-63.331166085919968
30
0
40
0.76200000000000045
100
AcDbArc
50
270
51
355.75197733330009
0
ARC
5
143
100
AcDbEntity
8
0
100
AcDbCircle
10
0.066347804660037438
20
-64.093166085919961
30
0
40
9.5249999999999986
100
AcDbArc
50
4.2480226666999004
51
175.75197733287212
0
ARC
5
144
100
AcDbEntity
8
0
100
AcDbCircle
10
-15.880444038039951
20
-61.045166085919945
30
0
40
3.0479999999999992
100
AcDbArc
50
174.11240383480018
51
270.00000000000006
0
CIRCLE
5
145
100
AcDbEntity
8
0
100
AcDbCircle
10
16.066347806120032
20
-61.09316608643995
30
0
40
1.5000000000000202
0
LINE
5
146
100
AcDbEntity
8
0
100
AcDbLine
10
7.5086466767000282
20
-45.148537833519995
30
0
11
0.77345458704003867
21
-38.413345741319979
31
0
0
LINE
5
147
100
AcDbEntity
8
0
100
AcDbLine
10
0.77345458704003756
20
-29.049772865759994
30
0
11
6.0944331144800179
21
-34.370751395739966
31
0
0
ARC
5
148
100
AcDbEntity
8
0
100
AcDbCircle
10
-4.0914669251599642
20
28.480597958459999
30
0
40
2.0000000000000022
100
AcDbArc
50
175.47026504619996
51
270.00000000000006
0
LINE
5
149
100
AcDbEntity
8
0
100
AcDbLine
10
0.77345458704003867
20
-41.241772865759991
30
0
11
6.0944331144800223
21
-46.562751395739987
31
0
0
LINE
5
150
100
AcDbEntity
8
0
100
AcDbLine
10
13.066347804100019
20
-40.606306102659985
30
0
11
13.066347804100019
21
-36.606306101659982
31
0
0
LINE
5
151
100
AcDbEntity
8
0
100
AcDbLine
10
0.77345458704002534
20
2.2863930596999928
30
0
11
5.7232020535399997
21
7.23614052874
31
0
0
LINE
5
152
100
AcDbEntity
8
0
100
AcDbLine
10
-7.0047200064399746
20
-5.491781531239976
30
0
11
-2.0549725373999839
21
-0.54203406474000015
31
0
0
LINE
5
153
100
AcDbEntity
8
0
100
AcDbLine
10
-0.64075897517996672
20
-32.317345741319997
30
0
11
-7.3759510673799618
21
-39.052537833519999
31
0
0
LINE
5
154
100
AcDbEntity
8
0
100
AcDbLine
10
-0.64075897517996561
20
-44.509345741319983
30
0
11
-7.3759510673799582
21
-51.244537833519999
31
0
0
LINE
5
155
100
AcDbEntity
8
0
100
AcDbLine
10
5.7232020535400041
20
-6.9059950960000123
30
0
11
0.77345458704002534
21
-1.9562476269599878
31
0
0
ARC
5
156
100
AcDbEntity
8
0
100
AcDbCircle
10
33.184340842099985
20
30.774936676859994
30
0
40
27.050919395710618
100
AcDbArc
50
181.65808994449972
51
184.52973495379993
0
LINE
5
157
100
AcDbEntity
8
0
100
AcDbLine
10
-10.933652194279961
20
-40.606306102659985
30
0
11
-10.933652194279961
21
-36.606306101659982
31
0
0
ARC
5
158
100
AcDbEntity
8
0
100
AcDbCircle
10
-6.6763056645400187
20
37.417912034519972
30
0
40
2.0000000001690363
100
AcDbArc
50
182.33843215068984
51
315.00000000000085
0
LINE
5
159
100
AcDbEntity
8
0
100
AcDbLine
10
-5.9617375051599675
20
-34.370751395739966
30
0
11
-0.64075897517996783
21
-29.049772865759994
31
0
0
ARC
5
160
100
AcDbEntity
8
0
100
AcDbCircle
10
-6.6688442849999641
20
-21.471644613360009
30
0
40
0.99999999999999489
100
AcDbArc
50
134.99999999999986
51
315
0
ARC
5
161
100
AcDbEntity
8
0
100
AcDbCircle
10
2.8947749290999902
20
0.1650727176400088
30
0
40
0.99999999999998523
100
AcDbArc
50
135.00000000000074
51
225.00000000000071
0
ARC
5
162
100
AcDbEntity
8
0
100
AcDbCircle
10
0.066347804660023005
20
-14.73645252369999
30
0
40
1.0000000000000346
100
AcDbArc
50
44.999999999999332
51
135.00000000000071
0
ARC
5
163
100
AcDbEntity
8
0
100
AcDbCircle
10
0.066347804660030776
20
-41.948879648139979
30
0
40
0.999999999999997
100
AcDbArc
50
45.00000000000005
51
135
0
LINE
5
164
100
AcDbEntity
8
0
100
AcDbLine
10
0.77345458704004422
20
-47.337772865759973
30
0
11
6.0944331144800241
21
-52.658751395739991
31
0
0
ARC
5
165
100
AcDbEntity
8
0
100
AcDbCircle
10
6.4303088359200133
20
-6.198888313620003
30
0
40
1.0000000000000107
100
AcDbArc
50
-134.99999999999929
51
45.000000000000718
0
LINE
5
166
100
AcDbEntity
8
0
100
AcDbLine
10
7.5086466767000282
20
-39.052537833519999
30
0
11
0.77345458704003756
21
-32.317345741319997
31
0
0
ARC
5
167
100
AcDbEntity
8
0
100
AcDbCircle
10
-6.6688442849999641
20
-15.375644613359988
30
0
40
0.99999999999999334
100
AcDbArc
50
135.00000000000011
51
315
0
ARC
5
168
100
AcDbEntity
8
0
100
AcDbCircle
10
0.066347804660023005
20
-17.564879648139996
30
0
40
0.99999999999999778
100
AcDbArc
50
45.000000000000007
51
135
0
ARC
5
169
100
AcDbEntity
8
0
100
AcDbCircle
10
6.8015398968600316
20
-39.759644613359995
30
0
40
0.99999999999999489
100
AcDbArc
50
-135.00000000000031
51
45
0
ARC
5
170
100
AcDbEntity
8
0
100
AcDbCircle
10
-6.6688442849999578
20
-39.759644613359995
30
0
40
0.99999999999999489
100
AcDbArc
50
134.9999999999998
51
315.00000000000028
0
ARC
5
171
100
AcDbEntity
8
0
100
AcDbCircle
10
-6.297613226599978
20
-6.198888313620003
30
0
40
0.999999999999998
100
AcDbArc
50
135
51
315
0
ARC
5
172
100
AcDbEntity
8
0
100
AcDbCircle
10
7.2319106312400212
20
8.3577580848399968
30
0
40
25.399999999417886
100
AcDbArc
50
150.90473581054599
51
184.48393938779998
0
ARC
5
173
100
AcDbEntity
8
0
100
AcDbCircle
10
-6.6688442849999507
20
-51.951644613359981
30
0
40
1.0000000000000091
100
AcDbArc
50
134.99999999999909
51
314.99999999999943
0
ARC
5
174
100
AcDbEntity
8
0
100
AcDbCircle
10
6.8015398968600209
20
-27.567644613359995
30
0
40
1.0000000000000073
100
AcDbArc
50
-134.99999999999915
51
45
0
ARC
5
175
100
AcDbEntity
8
0
100
AcDbCircle
10
0.066347804660024115
20
-23.66087964814
30
0
40
0.999999999999997
100
AcDbArc
50
45.00000000000005
51
135
0
LINE
5
176
100
AcDbEntity
8
0
100
AcDbLine
10
5.559798842119994
20
31.348559281199982
30
0
11
1.4805613670330993
21
35.427796756593075
31
0
0
ARC
5
177
100
AcDbEntity
8
0
100
AcDbCircle
10
0.066347804660016343
20
2.9934998420800021
30
0
40
0.99999999999999778
100
AcDbArc
50
225
51
315
0
ARC
5
178
100
AcDbEntity
8
0
100
AcDbCircle
10
-7.0992150219199956
20
8.3577580848399968
30
0
40
25.399999999999999
100
AcDbArc
50
-4.4839393877998965
51
29.095264190899968
0
LINE
5
179
100
AcDbEntity
8
0
100
AcDbLine
10
4.2241625344800156
20
26.480597958459995
30
0
11
-4.0914669251599625
21
26.480597958459995
31
0
0
ARC
5
180
100
AcDbEntity
8
0
100
AcDbCircle
10
0.066347804660028556
20
-26.928452523699992
30
0
40
0.99999999999999778
100
AcDbArc
50
45.000000000000007
51
135
0
ARC
5
181
100
AcDbEntity
8
0
100
AcDbCircle
10
0.066347804660035217
20
-48.044879648139982
30
0
40
0.99999999999999778
100
AcDbArc
50
45.000000000000007
51
135
0
ARC
5
182
100
AcDbEntity
8
0
100
AcDbCircle
10
-6.2976132265999851
20
6.5290337489000034
30
0
40
0.999999999999998
100
AcDbArc
50
45
51
225.00000000000071
0
ARC
5
183
100
AcDbEntity
8
0
100
AcDbCircle
10
0.066347804660030776
20
-45.216452523699971
30
0
40
1.0000000000000011
100
AcDbArc
50
44.999999999999829
51
135
0
LINE
5
184
100
AcDbEntity
8
0
100
AcDbLine
10
7.5086466767000175
20
-26.860537833519999
30
0
11
0.773454587040032
21
-20.125345741319997
31
0
0
ARC
5
185
100
AcDbEntity
8
0
100
AcDbCircle
10
-6.6688442849999641
20
-27.567644613360013
30
0
40
0.99999999999999489
100
AcDbArc
50
134.99999999999986
51
315
0
ARC
5
186
100
AcDbEntity
8
0
100
AcDbCircle
10
-2.7620793197799576
20
0.16507271763999104
30
0
40
1.0000000000000102
100
AcDbArc
50
-45.000000000000718
51
45.000000000000696
0
ARC
5
187
100
AcDbEntity
8
0
100
AcDbCircle
10
6.4303088359200133
20
6.5290337489000034
30
0
40
0.999999999999998
100
AcDbArc
50
-45
51
134.99999999999946
0
LINE
5
188
100
AcDbEntity
8
0
100
AcDbLine
10
-1.3478657575600024
20
39.917924817059969
30
0
11
-5.2620921023199774
21
36.003698472299973
31
0
0
LINE
5
189
100
AcDbEntity
8
0
100
AcDbLine
10
5.3947877114869325
20
36.003698472146866
30
0
11
1.4805613670330935
21
39.917924817213077
31
0
0
ARC
5
190
100
AcDbEntity
8
0
100
AcDbCircle
10
12.066347805120024
20
-40.606306102659985
30
0
40
1.0000000000000142
100
AcDbArc
50
-180
51
0
0
LINE
5
191
100
AcDbEntity
8
0
100
AcDbLine
10
0.773454587040032
20
-22.953772865760026
30
0
11
6.0944331144800152
21
-28.274751395739987
31
0
0
ARC
5
192
100
AcDbEntity
8
0
100
AcDbCircle
10
6.8015398968600227
20
-33.663644613359992
30
0
40
1.0000000000000073
100
AcDbArc
50
-134.99999999999926
51
45.000000000000497
0
LINE
5
193
100
AcDbEntity
8
0
100
AcDbLine
10
-5.9617375051599675
20
-28.274751395739987
30
0
11
-0.64075897517997227
21
-22.953772865760026
31
0
0
LINE
5
194
100
AcDbEntity
8
0
100
AcDbLine
10
-5.9617375051599675
20
-22.178751395739983
30
0
11
-0.64075897517997338
21
-16.857772865759987
31
0
0
ARC
5
195
100
AcDbEntity
8
0
100
AcDbCircle
10
0.066347804659995249
20
64.535033383099972
30
0
40
15.87499999999997
100
AcDbArc
50
236.43184225250002
51
303.56815774749992
0
LINE
5
196
100
AcDbEntity
8
0
100
AcDbLine
10
-0.64075897517997338
20
-14.029345741319998
30
0
11
-7.3759510673799689
21
-20.764537833520013
31
0
0
ARC
5
197
100
AcDbEntity
8
0
100
AcDbCircle
10
-5.8145701921799997
20
20.670597957459989
30
0
40
2.0000000005000018
100
AcDbArc
50
90
51
159.64628549182513
0
ARC
5
198
100
AcDbEntity
8
0
100
AcDbCircle
10
-33.051645232779968
20
30.774936676859966
30
0
40
27.050919395710608
100
AcDbArc
50
332.44063535190003
51
339.64628546650005
0
ARC
5
199
100
AcDbEntity
8
0
100
AcDbCircle
10
0.066347804660029666
20
-33.024452523699985
30
0
40
0.999999999999997
100
AcDbArc
50
45.00000000000005
51
135
0
LINE
5
200
100
AcDbEntity
8
0
100
AcDbLine
10
-0.64075897517996783
20
-26.221345741319983
30
0
11
-7.3759510673799671
21
-32.956537833519974
31
0
0
ARC
5
201
100
AcDbEntity
8
0
100
AcDbCircle
10
0.066347804660015233
20
9.970597957959999
30
0
40
1.9999999997834863
100
AcDbArc
50
224.99999999999963
51
315.00000000000034
0
LINE
5
202
100
AcDbEntity
8
0
100
AcDbLine
10
7.5086466767000175
20
-20.764537833519995
30
0
11
0.77345458704003089
21
-14.029345741319998
31
0
0
ARC
5
203
100
AcDbEntity
8
0
100
AcDbCircle
10
-7.2970774328999948
20
17.334023195519986
30
0
40
2.0000000000000129
100
AcDbArc
50
152.44063535190003
51
225.00000000000045
0
ARC
5
204
100
AcDbEntity
8
0
100
AcDbCircle
10
6.8015398968600334
20
-51.951644613359981
30
0
40
0.999999999999998
100
AcDbArc
50
-135
51
45
0
LINE
5
205
100
AcDbEntity
8
0
100
AcDbLine
10
7.5086466767000175
20
-14.668537833519997
30
0
11
0.77345458704003089
21
-7.9333457413199948
31
0
0
ARC
5
206
100
AcDbEntity
8
0
100
AcDbCircle
10
-4.0128896705799741
20
29.93434571897998
30
0
40
1.9999999999999905
100
AcDbArc
50
135.00000000000043
51
178.34191007944466
0
ARC
5
207
100
AcDbEntity
8
0
100
AcDbCircle
10
-6.6688442849999641
20
-33.663644613359992
30
0
40
0.99999999999999334
100
AcDbArc
50
134.99999999999974
51
315
0
ARC
5
208
100
AcDbEntity
8
0
100
AcDbCircle
10
33.184340842099985
20
30.774936676859994
30
0
40
27.050919395496575
100
AcDbArc
50
200.35371453162759
51
207.55936464810003
0
LINE
5
209
100
AcDbEntity
8
0
100
AcDbLine
10
7.5086466767000299
20
-51.244537833519999
30
0
11
0.77345458704004422
21
-44.509345741319983
31
0
0
LINE
5
210
100
AcDbEntity
8
0
100
AcDbLine
10
-0.64075897517998004
20
2.2863930596999928
30
0
11
-5.5905064442199759
21
7.2361405287399823
31
0
0
CIRCLE
5
211
100
AcDbEntity
8
0
100
AcDbCircle
10
10.502874488079975
20
48.807842414379977
30
0
40
1.4999999999999996
0
ARC
5
212
100
AcDbEntity
8
0
100
AcDbCircle
10
6.8090012738600247
20
37.417912034519972
30
0
40
2.0000000000000084
100
AcDbArc
50
225.00000000000028
51
357.66156784931087
0
LINE
5
213
100
AcDbEntity
8
0
100
AcDbLine
10
11.066347806139994
20
-36.606306101659982
30
0
11
11.066347806139994
21
-40.606306102659985
31
0
0
LINE
5
214
100
AcDbEntity
8
0
100
AcDbLine
10
-12.933652194779963
20
-36.606306101659982
30
0
11
-12.933652194779963
21
-40.606306102659985
31
0
0
LINE
5
215
100
AcDbEntity
8
0
100
AcDbLine
10
0.77345458704003867
20
-35.145772865759987
30
0
11
6.0944331144800223
21
-40.466751395739962
31
0
0
LINE
5
216
100
AcDbEntity
8
0
100
AcDbLine
10
-1.3478657577130875
20
35.427796756593075
30
0
11
-5.4271032329530726
21
31.348559281353058
31
0
0
ARC
5
217
100
AcDbEntity
8
0
100
AcDbCircle
10
0.066347804660023005
20
-20.832452523699988
30
0
40
0.99999999999999778
100
AcDbArc
50
45.000000000000007
51
135
0
ARC
5
218
100
AcDbEntity
8
0
100
AcDbCircle
10
0.066347804660016343
20
-2.6633544068000017
30
0
40
0.99999999999999756
100
AcDbArc
50
44.999999999999986
51
135.00000000000003
0
ARC
5
219
100
AcDbEntity
8
0
100
AcDbCircle
10
5.9472658015000164
20
20.670597957459989
30
0
40
2.000000000000012
100
AcDbArc
50
20.353714533500252
51
90
0
ARC
5
220
100
AcDbEntity
8
0
100
AcDbCircle
10
0.066347804660029666
20
-35.852879648139982
30
0
40
0.99999999999999778
100
AcDbArc
50
45.000000000000007
51
135
0
ARC
5
221
100
AcDbEntity
8
0
100
AcDbCircle
10
6.8015398968600316
20
-45.855644613359978
30
0
40
0.999999999999998
100
AcDbArc
50
-135
51
45
0
ARC
5
222
100
AcDbEntity
8
0
100
AcDbCircle
10
7.4297730422200132
20
17.334023195519986
30
0
40
1.9999999997834865
100
AcDbArc
50
-44.999999999999652
51
27.559364648099983
0
LINE
5
223
100
AcDbEntity
8
0
100
AcDbLine
10
7.5086466767000282
20
-32.956537833519974
30
0
11
0.77345458704003756
21
-26.221345741319983
31
0
0
ARC
5
224
100
AcDbEntity
8
0
100
AcDbCircle
10
-6.6688442849999578
20
-45.855644613359978
30
0
40
0.99999999999999489
100
AcDbArc
50
134.9999999999998
51
315
0
ARC
5
225
100
AcDbEntity
8
0
100
AcDbCircle
10
0.066347804660028556
20
-29.756879648140004
30
0
40
0.99999999999999778
100
AcDbArc
50
45.000000000000007
51
135
0
ARC
5
226
100
AcDbEntity
8
0
100
AcDbCircle
10
0.066347804660029666
20
-39.120452523699988
30
0
40
0.99999999999999778
100
AcDbArc
50
45.000000000000007
51
135
0
ARC
5
227
100
AcDbEntity
8
0
100
AcDbCircle
10
6.8015398968600209
20
-15.375644613359988
30
0
40
0.999999999999998
100
AcDbArc
50
-135
51
44.999999999999787
0
ARC
5
228
100
AcDbEntity
8
0
100
AcDbCircle
10
0.066347804660021895
20
-11.468879648139998
30
0
40
0.99999999999999778
100
AcDbArc
50
45.000000000000007
51
135
0
LINE
5
229
100
AcDbEntity
8
0
100
AcDbLine
10
7.1374156157600455
20
-5.491781531239976
30
0
11
2.1876681492600292
21
-0.54203406474000015
31
0
0
LINE
5
230
100
AcDbEntity
8
0
100
AcDbLine
10
1.4805613668800204
20
8.556384395740011
30
0
11
8.8439866044400191
21
15.919809633299998
31
0
0
LINE
5
231
100
AcDbEntity
8
0
100
AcDbLine
10
-2.0549725373999839
20
0.87217949747998724
30
0
11
-7.0047200064399817
21
5.8219269665199942
31
0
0
LINE
5
232
100
AcDbEntity
8
0
100
AcDbLine
10
-0.64075897517997338
20
-20.125345741319997
30
0
11
-7.3759510673799689
21
-26.860537833520016
31
0
0
ARC
5
233
100
AcDbEntity
8
0
100
AcDbCircle
10
-33.051645232779968
20
30.774936676859966
30
0
40
27.050919395710594
100
AcDbArc
50
355.47026504620004
51
358.34191005550002
0
LINE
5
234
100
AcDbEntity
8
0
100
AcDbLine
10
-1.3478657575599899
20
8.556384395740011
30
0
11
-8.7112909951199597
21
15.919809633299998
31
0
0
ARC
5
235
100
AcDbEntity
8
0
100
AcDbCircle
10
-11.933652195799933
20
-36.606306101659982
30
0
40
1.0000000000000497
100
AcDbArc
50
0
51
180
0
ENDSEC
0
SECTION
2
OBJECTS
0
DICTIONARY
5
C
100
AcDbDictionary
3
ACAD_GROUP
350
D
3
ACAD_MLINESTYLE
350
17
0
DICTIONARY
5
D
100
AcDbDictionary
0
DICTIONARY
5
1A
330
C
100
AcDbDictionary
0
DICTIONARY
5
17
100
AcDbDictionary
0
ENDSEC
0
EOF
