0
SECTION
2
HEADER
9
$INSUNITS
70
4
9
$ACADVER
1
AC1014
9
$HANDSEED
5
FFFF
0
ENDSEC
0
SECTION
2
TABLES
0
TABLE
2
VPORT
5
8
100
AcDbSymbolTable
0
ENDTAB
0
TABLE
2
LTYPE
5
5
100
AcDbSymbolTable
0
LTYPE
5
14
100
AcDbSymbolTableRecord
100
AcDbLinetypeTableRecord
2
BYBLOCK
70
0
0
LTYPE
5
15
100
AcDbSymbolTableRecord
100
AcDbLinetypeTableRecord
2
BYLAYER
70
0
0
ENDTAB
0
TABLE
2
LAYER
5
2
100
AcDbSymbolTable
70
2
0
LAYER
5
50
100
AcDbSymbolTableRecord
100
AcDbLayerTableRecord
2
0
70
0
6
CONTINUOUS
0
ENDTAB
0
TABLE
2
STYLE
5
3
100
AcDbSymbolTable
70
1
0
STYLE
5
11
100
AcDbSymbolTableRecord
100
AcDbTextStyleTableRecord
2
STANDARD
70
0
0
ENDTAB
0
TABLE
2
VIEW
5
6
100
AcDbSymbolTable
70
0
0
ENDTAB
0
TABLE
2
UCS
5
7
100
AcDbSymbolTable
70
0
0
ENDTAB
0
TABLE
2
APPID
5
9
100
AcDbSymbolTable
70
2
0
APPID
5
12
100
AcDbSymbolTableRecord
100
AcDbRegAppTableRecord
2
ACAD
70
0
0
ENDTAB
0
TABLE
2
DIMSTYLE
5
A
100
AcDbSymbolTable
70
1
0
ENDTAB
0
TABLE
2
BLOCK_RECORD
5
1
100
AcDbSymbolTable
70
1
0
BLOCK_RECORD
5
1F
100
AcDbSymbolTableRecord
100
AcDbBlockTableRecord
2
*MODEL_SPACE
0
BLOCK_RECORD
5
1B
100
AcDbSymbolTableRecord
100
AcDbBlockTableRecord
2
*PAPER_SPACE
0
ENDTAB
0
ENDSEC
0
SECTION
2
BLOCKS
0
BLOCK
5
20
100
AcDbEntity
100
AcDbBlockBegin
2
*MODEL_SPACE
0
ENDBLK
5
21
100
AcDbEntity
100
AcDbBlockEnd
0
BLOCK
5
1C
100
AcDbEntity
100
AcDbBlockBegin
2
*PAPER_SPACE
0
ENDBLK
5
1D
100
AcDbEntity
100
AcDbBlockEnd
0
ENDSEC
0
SECTION
2
ENTITIES
0
ARC
5
100
100
AcDbEntity
8
0
100
AcDbCircle
10
3.9219567666798838
20
-46.142087376180015
30
0
40
1.0000000000000142
100
AcDbArc
50
-180
51
0
0
LINE
5
101
100
AcDbEntity
8
0
100
AcDbLine
10
8.9219567666599175
20
-43.767187376180075
30
0
11
8.9219567666599175
21
-27.892187376180093
31
0
0
ARC
5
102
100
AcDbEntity
8
0
100
AcDbCircle
10
7.665682903799933
20
52.365485890219944
30
0
40
1.0000000000009059
100
AcDbArc
50
-2.3549099464993875
51
50.188840524100463
0
LINE
5
103
100
AcDbEntity
8
0
100
AcDbLine
10
-1.4922567965400901
20
50.369676424899964
30
0
11
-5.5714942692400626
21
46.290438949659944
31
0
0
LINE
5
104
100
AcDbEntity
8
0
100
AcDbLine
10
4.921956768199891
20
-46.142087376180015
30
0
11
4.9219567681999266
21
-25.517287376180082
31
0
0
LINE
5
105
100
AcDbEntity
8
0
100
AcDbLine
10
-8.8206874127000745
20
52.318620454359973
30
0
11
-8.8204501894000842
21
52.312844369899963
31
0
0
ARC
5
106
100
AcDbEntity
8
0
100
AcDbCircle
10
-4.1572807070200923
20
44.876225387439931
30
0
40
1.9999999997834741
100
AcDbArc
50
134.99999999999915
51
178.3419100554996
0
LINE
5
107
100
AcDbEntity
8
0
100
AcDbLine
10
-8.8209248442800714
20
52.324396531199952
30
0
11
-8.8206874127000745
21
52.318620454359973
31
0
0
ARC
5
108
100
AcDbEntity
8
0
100
AcDbCircle
10
-33.196036269220087
20
45.71681634531997
30
0
40
27.050919395710636
100
AcDbArc
50
355.47026504620004
51
358.34191005727041
0
ARC
5
109
100
AcDbEntity
8
0
100
AcDbCircle
10
11.921956766139914
20
-29.479687376180106
30
0
40
1.0000000000000142
100
AcDbArc
50
0
51
180
0
ARC
5
110
100
AcDbEntity
8
0
100
AcDbCircle
10
7.921956767679923
20
-27.892187376180093
30
0
40
1.0000000000000142
100
AcDbArc
50
0
51
180
0
ARC
5
111
100
AcDbEntity
8
0
100
AcDbCircle
10
7.921956767679923
20
-43.767187376180075
30
0
40
1.0000000000000142
100
AcDbArc
50
-180
51
0
0
LINE
5
112
100
AcDbEntity
8
0
100
AcDbLine
10
-8.8202131718400878
20
52.307068275279974
30
0
11
-8.819976362560098
21
52.30129217557996
31
0
0
ARC
5
113
100
AcDbEntity
8
0
100
AcDbCircle
10
11.921956766139914
20
-42.179687376180098
30
0
40
1.0000000000000142
100
AcDbArc
50
-180
51
0
0
LWPOLYLINE
5
114
100
AcDbEntity
8
0
100
AcDbPolyline
90
4
70
1
43
0.0
10
10.716956765679946
20
42.749877625919922
10
10.716956765679946
20
47.525077625919948
42
0.99999999999999989
10
8.1769567656798969
20
47.525077625919948
10
8.1769567656798969
20
42.749877625919922
42
0.99999999999999989
0
LINE
5
115
100
AcDbEntity
8
0
100
AcDbLine
10
2.9219567676999247
20
-25.517287376180082
30
0
11
2.9219567676998892
21
-46.142087376180015
31
0
0
LINE
5
116
100
AcDbEntity
8
0
100
AcDbLine
10
-8.8197397615600792
20
52.295516063179917
30
0
11
-8.819503368840067
21
52.289739945699921
31
0
0
ARC
5
117
100
AcDbEntity
8
0
100
AcDbCircle
10
3.9219567666799193
20
-25.517287376180082
30
0
40
1.0000000000000142
100
AcDbArc
50
0
51
180
0
ARC
5
118
100
AcDbEntity
8
0
100
AcDbCircle
10
12.571956723439861
20
-46.053744700440063
30
0
40
6.3499999995276557
100
AcDbArc
50
-37.973360201639665
51
0
0
LINE
5
119
100
AcDbEntity
8
0
100
AcDbLine
10
-8.8204501894000842
20
52.312844369899963
30
0
11
-8.8202131718400878
21
52.307068275279974
31
0
0
LINE
5
120
100
AcDbEntity
8
0
100
AcDbLine
10
8.6629447370599166
20
52.278187682799967
30
0
11
8.6631807157599283
21
52.283963818059945
31
0
0
CIRCLE
5
121
100
AcDbEntity
8
0
100
AcDbCircle
10
22.34900307227992
20
-22.352324224280071
30
0
40
1.5000000000000202
0
LINE
5
122
100
AcDbEntity
8
0
100
AcDbLine
10
-8.8192671818600488
20
52.283963818059945
30
0
11
-8.8190312031600726
21
52.278187682799967
31
0
0
LINE
5
123
100
AcDbEntity
8
0
100
AcDbLine
10
8.6634169027399111
20
52.289739945699921
30
0
11
8.6636532954599232
21
52.295516063179917
31
0
0
LINE
5
124
100
AcDbEntity
8
0
100
AcDbLine
10
6.9219567661599513
20
-27.892187376180093
30
0
11
6.9219567661599513
21
-43.767187376180075
31
0
0
ARC
5
125
100
AcDbEntity
8
0
100
AcDbCircle
10
-6.8206967009800934
20
52.359791702979933
30
0
40
1.9999999999999556
100
AcDbArc
50
182.3384321521003
51
315
0
ARC
5
126
100
AcDbEntity
8
0
100
AcDbCircle
10
29.409982140539874
20
-59.196448834080101
30
0
40
15.010004024144832
100
AcDbArc
50
142.0266398010998
51
175.8497894219999
0
ARC
5
127
100
AcDbEntity
8
0
100
AcDbCircle
10
-0.078043234320084309
20
48.955462862679923
30
0
40
1.999999999999996
100
AcDbArc
50
45
51
134.99999999999929
0
ARC
5
128
100
AcDbEntity
8
0
100
AcDbCircle
10
-8.395471044440086
20
31.976104451639937
30
0
40
0.99999999999999656
100
AcDbArc
50
118.51969984089915
51
197.44549569659981
0
LINE
5
129
100
AcDbEntity
8
0
100
AcDbLine
10
8.6636532954599232
20
52.295516063179917
30
0
11
8.6638898964599065
21
52.30129217557996
31
0
0
ARC
5
130
100
AcDbEntity
8
0
100
AcDbCircle
10
11.921956766139878
20
-57.927486416460084
30
0
40
2.5240000000000129
100
AcDbArc
50
208.358698086
51
355.84978942200064
0
LINE
5
131
100
AcDbEntity
8
0
100
AcDbLine
10
8.6643637232999282
20
52.312844369899963
30
0
11
8.664600946599883
21
52.318620454359973
31
0
0
CIRCLE
5
132
100
AcDbEntity
8
0
100
AcDbCircle
10
-10.078043234280081
20
35.072477626419939
30
0
40
0.99999999999999845
0
LINE
5
133
100
AcDbEntity
8
0
100
AcDbLine
10
8.6631807157599283
20
52.283963818059945
30
0
11
8.6634169027399111
21
52.289739945699921
31
0
0
LINE
5
134
100
AcDbEntity
8
0
100
AcDbLine
10
8.664600946599883
20
52.318620454359973
30
0
11
8.664838378179951
21
52.324396531199952
31
0
0
ARC
5
135
100
AcDbEntity
8
0
100
AcDbCircle
10
-0.078043234320119836
20
-48.529687376180078
30
0
40
1.0000000000000142
100
AcDbArc
50
-180
51
0
0
ARC
5
136
100
AcDbEntity
8
0
100
AcDbCircle
10
7.2853820057799368
20
32.275902863979965
30
0
40
1.9999999997834741
100
AcDbArc
50
314.9999999999992
51
342.55450430340034
0
LINE
5
137
100
AcDbEntity
8
0
100
AcDbLine
10
8.6641267057399318
20
52.307068275279974
30
0
11
8.6643637232999282
21
52.312844369899963
31
0
0
LINE
5
138
100
AcDbEntity
8
0
100
AcDbLine
10
-5.4064831386070011
20
50.945578140606841
30
0
11
-1.4922567966931766
21
54.859804485673095
31
0
0
ARC
5
139
100
AcDbEntity
8
0
100
AcDbCircle
10
-7.4414684718800572
20
32.275902863979965
30
0
40
2.0000000000000036
100
AcDbArc
50
197.44549569659992
51
225.00000000000006
0
ARC
5
140
100
AcDbEntity
8
0
100
AcDbCircle
10
4.0797714954999265
20
43.422477626919957
30
0
40
2.0000000000000284
100
AcDbArc
50
-90
51
4.5297349537997054
0
LWPOLYLINE
5
141
100
AcDbEntity
8
0
100
AcDbPolyline
90
4
70
1
43
0.0
10
-10.873043234320079
20
47.525077625919948
42
-0.99999999999999989
10
-8.33304323432003
20
47.525077625919948
10
-8.3330432343200656
20
42.749877625919922
42
-0.99999999999999989
10
-10.873043234320043
20
42.749877625919922
0
LINE
5
142
100
AcDbEntity
8
0
100
AcDbLine
10
8.6638898964599065
20
52.30129217557996
30
0
11
8.6641267057399318
21
52.307068275279974
31
0
0
LINE
5
143
100
AcDbEntity
8
0
100
AcDbLine
10
5.4154078032929931
20
46.290438949813023
30
0
11
1.3361703304399342
21
50.369676424899964
31
0
0
ARC
5
144
100
AcDbEntity
8
0
100
AcDbCircle
10
33.039949803119946
20
45.71681634531997
30
0
40
27.050919396116811
100
AcDbArc
50
181.65808994272956
51
184.52973495379993
0
LINE
5
145
100
AcDbEntity
8
0
100
AcDbLine
10
1.3361703304399342
20
54.85980448551993
30
0
11
5.2503966726599316
21
50.945578140759963
31
0
0
LINE
5
146
100
AcDbEntity
8
0
100
AcDbLine
10
-8.819976362560098
20
52.30129217557996
30
0
11
-8.8197397615600792
21
52.295516063179917
31
0
0
ARC
5
147
100
AcDbEntity
8
0
100
AcDbCircle
10
4.0011942409199008
20
44.876225387439931
30
0
40
1.9999999999999578
100
AcDbArc
50
1.6580899445003912
51
45
0
CIRCLE
5
148
100
AcDbEntity
8
0
100
AcDbCircle
10
9.9219567681799248
20
35.072477626419939
30
0
40
0.99999999999999845
0
ARC
5
149
100
AcDbEntity
8
0
100
AcDbCircle
10
-0.078043234320084309
20
-23.129687376180055
30
0
40
1.0000000000000142
100
AcDbArc
50
0
51
180
0
ARC
5
150
100
AcDbEntity
8
0
100
AcDbCircle
10
28.56783441411995
20
-19.262119345520095
30
0
40
1.5875000000000092
100
AcDbArc
50
-46.999999999999368
51
42.999999999999766
0
ARC
5
151
100
AcDbEntity
8
0
100
AcDbCircle
10
31.621956723439943
20
-35.949795317320095
30
0
40
12.699999999280658
100
AcDbArc
50
132.99999999813025
51
180
0
ARC
5
152
100
AcDbEntity
8
0
100
AcDbCircle
10
5.8028747625199273
20
35.612477625919951
30
0
40
2.0000000000000133
100
AcDbArc
50
37.873981344199976
51
90
0
ARC
5
153
100
AcDbEntity
8
0
100
AcDbCircle
10
6.6646102348799019
20
52.359791702979933
30
0
40
1.9999999997834488
100
AcDbArc
50
225
51
357.66156784789973
0
LINE
5
154
100
AcDbEntity
8
0
100
AcDbLine
10
12.921956767659921
20
-42.179687376180098
30
0
11
12.921956767659921
21
-29.479687376180106
31
0
0
ARC
5
155
100
AcDbEntity
8
0
100
AcDbCircle
10
-7.821769369900089
20
52.365485890219944
30
0
40
1.0000000000009006
100
AcDbArc
50
129.81115947589953
51
182.35490994649939
0
ARC
5
156
100
AcDbEntity
8
0
100
AcDbCircle
10
6.5922377202399218
20
36.22640443209994
30
0
40
1.000000000000008
100
AcDbArc
50
-19.113953381499762
51
37.873981344199976
0
LINE
5
157
100
AcDbEntity
8
0
100
AcDbLine
10
-8.819503368840067
20
52.289739945699921
30
0
11
-8.8192671818600488
21
52.283963818059945
31
0
0
ARC
5
158
100
AcDbEntity
8
0
100
AcDbCircle
10
-5.9589612286200833
20
35.612477625919951
30
0
40
2.0000000005000018
100
AcDbArc
50
90
51
142.12601865580004
0
LINE
5
159
100
AcDbEntity
8
0
100
AcDbLine
10
10.921956767159955
20
-29.479687376180106
30
0
11
10.921956767159955
21
-42.179687376180098
31
0
0
CIRCLE
5
160
100
AcDbEntity
8
0
100
AcDbCircle
10
15.921956767139918
20
-46.151286417980032
30
0
40
1.4999999999999745
0
ARC
5
161
100
AcDbEntity
8
0
100
AcDbCircle
10
-10.078043234280081
20
35.072477626419939
30
0
40
2.5240000000000276
100
AcDbArc
50
-61.480300159099748
51
19.11395338149962
0
ARC
5
162
100
AcDbEntity
8
0
100
AcDbCircle
10
-29.566068606640084
20
-59.196448834080059
30
0
40
15.010004024144784
100
AcDbArc
50
4.1502105780000305
51
37.973360198900018
0
ARC
5
163
100
AcDbEntity
8
0
100
AcDbCircle
10
-12.07804323224007
20
-42.179687376180098
30
0
40
1.0000000000000142
100
AcDbArc
50
-180
51
0
0
ARC
5
164
100
AcDbEntity
8
0
100
AcDbCircle
10
-4.0780432327801108
20
-46.142087376180015
30
0
40
1.0000000000000142
100
AcDbArc
50
-180
51
0
0
CIRCLE
5
165
100
AcDbEntity
8
0
100
AcDbCircle
10
-5.3414566876600844
20
5.3381355381999462
30
0
40
1.5000000000000202
0
ARC
5
166
100
AcDbEntity
8
0
100
AcDbCircle
10
-44.808097609440068
20
8.7042576756399548
30
0
40
29.248745454062089
100
AcDbArc
50
316.99999999999994
51
337.86091234729997
0
CIRCLE
5
167
100
AcDbEntity
8
0
100
AcDbCircle
10
5.1853702215598929
20
-5.1886913735600793
30
0
40
1.4999999999999745
0
CIRCLE
5
168
100
AcDbEntity
8
0
100
AcDbCircle
10
-16.078043233240074
20
-46.151286417980032
30
0
40
1.4999999999999745
0
CIRCLE
5
169
100
AcDbEntity
8
0
100
AcDbCircle
10
-0.078043234320084309
20
0.074722082319969019
30
0
40
1.4999999999999745
0
ARC
5
170
100
AcDbEntity
8
0
100
AcDbCircle
10
-12.728043189540124
20
-46.053744700440063
30
0
40
6.3499999999999801
100
AcDbArc
50
180
51
217.97336020164005
0
ARC
5
171
100
AcDbEntity
8
0
100
AcDbCircle
10
-31.778043189540117
20
-35.949795317320095
30
0
40
12.700000000000014
100
AcDbArc
50
0
51
47.000000001869871
0
ARC
5
172
100
AcDbEntity
8
0
100
AcDbCircle
10
-44.80809760944009
20
-8.5548135110000523
30
0
40
29.248745454062139
100
AcDbArc
50
22.139087652700002
51
42.999999999999964
0
CIRCLE
5
173
100
AcDbEntity
8
0
100
AcDbCircle
10
-5.3414566876600844
20
-5.1886913735600437
30
0
40
1.4999999999999745
0
ARC
5
174
100
AcDbEntity
8
0
100
AcDbCircle
10
44.652011143339934
20
8.7042576756399193
30
0
40
29.248745454062075
100
AcDbArc
50
202.13908765269997
51
223
0
ARC
5
175
100
AcDbEntity
8
0
100
AcDbCircle
10
-23.597636537940083
20
0.074722082319969019
30
0
40
6.3500000000000254
100
AcDbArc
50
-22.139087652699921
51
22.139087652699899
0
ARC
5
176
100
AcDbEntity
8
0
100
AcDbCircle
10
-6.7483241863400778
20
36.22640443209994
30
0
40
1.0000000000000067
100
AcDbArc
50
142.12601865580004
51
199.11395338149975
0
ARC
5
177
100
AcDbEntity
8
0
100
AcDbCircle
10
-4.2358579616000824
20
43.422477626919957
30
0
40
2.0000000000000364
100
AcDbArc
50
175.47026504620032
51
270
0
LINE
5
178
100
AcDbEntity
8
0
100
AcDbLine
10
0.92195676719988739
20
-48.529687376180078
30
0
11
0.92195676719992292
21
-23.129687376180055
31
0
0
ARC
5
179
100
AcDbEntity
8
0
100
AcDbCircle
10
9.9219567681799248
20
35.072477626419939
30
0
40
2.5240000000000178
100
AcDbArc
50
160.88604661850039
51
241.48030015909976
0
LINE
5
180
100
AcDbEntity
8
0
100
AcDbLine
10
-1.0780432333000789
20
-23.129687376180055
30
0
11
-1.0780432333001144
21
-48.529687376180078
31
0
0
LINE
5
181
100
AcDbEntity
8
0
100
AcDbLine
10
5.8028747625199273
20
37.612477626419945
30
0
11
-5.9589612286200833
21
37.612477626419945
31
0
0
LINE
5
182
100
AcDbEntity
8
0
100
AcDbLine
10
-13.078043233760077
20
-29.47968737618007
30
0
11
-13.078043233760077
21
-42.179687376180098
31
0
0
LINE
5
183
100
AcDbEntity
8
0
100
AcDbLine
10
-11.078043233260075
20
-42.179687376180098
30
0
11
-11.078043233260075
21
-29.47968737618007
31
0
0
ARC
5
184
100
AcDbEntity
8
0
100
AcDbCircle
10
169.33903040735999
20
45.716816345319927
30
0
40
157
100
AcDbArc
50
173.52869130230007
51
180
0
LINE
5
185
100
AcDbEntity
8
0
100
AcDbLine
10
-4.2358579616000824
20
41.422477626419948
30
0
11
4.0797714954999265
21
41.422477626919928
31
0
0
LINE
5
186
100
AcDbEntity
8
0
100
AcDbLine
10
-23.116664017540085
20
-26.661603307000039
30
0
11
-29.806593276720097
21
-20.423143348080028
31
0
0
LINE
5
187
100
AcDbEntity
8
0
100
AcDbLine
10
-7.0780432322600717
20
-43.767187376180075
30
0
11
-7.0780432322600717
21
-27.892187376180093
31
0
0
LINE
5
188
100
AcDbEntity
8
0
100
AcDbLine
10
29.650506810619959
20
-20.423143348080064
30
0
11
22.960577551439911
21
-26.661603307000075
31
0
0
LINE
5
189
100
AcDbEntity
8
0
100
AcDbLine
10
-9.0780432327600735
20
-27.892187376180093
30
0
11
-9.0780432327600735
21
-43.767187376180075
31
0
0
ARC
5
190
100
AcDbEntity
8
0
100
AcDbCircle
10
-0.078043234320119836
20
-64.404687376180064
30
0
40
11.112499999999986
100
AcDbArc
50
28.358698085999805
51
151.64130191400022
0
CIRCLE
5
191
100
AcDbEntity
8
0
100
AcDbCircle
10
22.34900307227992
20
22.501768388919974
30
0
40
1.4999999999999971
0
ARC
5
192
100
AcDbEntity
8
0
100
AcDbCircle
10
-28.723920880220071
20
19.411563510159926
30
0
40
1.587499999999997
100
AcDbArc
50
133.00000000000017
51
223.00000000000017
0
LINE
5
193
100
AcDbEntity
8
0
100
AcDbLine
10
-5.0780432343000825
20
-25.517287376180082
30
0
11
-5.0780432343001181
21
-46.142087376180015
31
0
0
CIRCLE
5
194
100
AcDbEntity
8
0
100
AcDbCircle
10
-22.505089538380059
20
22.501768388919974
30
0
40
1.4999999999999971
0
LINE
5
195
100
AcDbEntity
8
0
100
AcDbLine
10
-19.078043189540104
20
-46.053744700440063
30
0
11
-19.078043189540104
21
-35.949795317320095
31
0
0
ARC
5
196
100
AcDbEntity
8
0
100
AcDbCircle
10
-0.078043234320084309
20
24.912477626419953
30
0
40
1.9999999997835241
100
AcDbArc
50
225.00000000000071
51
315
0
LINE
5
197
100
AcDbEntity
8
0
100
AcDbLine
10
-3.0780432338000807
20
-46.142087376180015
30
0
11
-3.0780432338000452
21
-25.517287376180082
31
0
0
LINE
5
198
100
AcDbEntity
8
0
100
AcDbLine
10
18.921956723439912
20
-35.949795317320095
30
0
11
18.921956723439877
21
-46.053744700440063
31
0
0
ARC
5
199
100
AcDbEntity
8
0
100
AcDbCircle
10
28.56783441411995
20
19.411563510159926
30
0
40
1.587499999999985
100
AcDbArc
50
-42.999999999999716
51
47.000000000000291
0
CIRCLE
5
200
100
AcDbEntity
8
0
100
AcDbCircle
10
5.1853702215598929
20
5.3381355381999462
30
0
40
1.5000000000000202
0
ARC
5
201
100
AcDbEntity
8
0
100
AcDbCircle
10
23.441550071839927
20
0.074722082319933492
30
0
40
6.3500000000000059
100
AcDbArc
50
157.86091234729966
51
202.13908765269971
0
ARC
5
202
100
AcDbEntity
8
0
100
AcDbCircle
10
-12.078043232240105
20
-57.927486416460084
30
0
40
2.523999999999992
100
AcDbArc
50
184.15021057799933
51
331.641301914
0
ARC
5
203
100
AcDbEntity
8
0
100
AcDbCircle
10
-0.078043234320084309
20
53.44559092329996
30
0
40
2.0000000000000466
100
AcDbArc
50
45.000000000000135
51
134.99999999999915
0
ARC
5
204
100
AcDbEntity
8
0
100
AcDbCircle
10
-33.196036269220087
20
45.71681634531997
30
0
40
20.700919395710649
100
AcDbArc
50
-46.999999999999979
51
0
0
ARC
5
205
100
AcDbEntity
8
0
100
AcDbCircle
10
-169.49511687346012
20
45.716816345319998
30
0
40
157
100
AcDbArc
50
0
51
6.4713086976999428
0
ARC
5
206
100
AcDbEntity
8
0
100
AcDbCircle
10
-0.078043234320084309
20
79.476913051559933
30
0
40
19.685000000000059
100
AcDbArc
50
250.74752224549988
51
289.25247775449998
0
CIRCLE
5
207
100
AcDbEntity
8
0
100
AcDbCircle
10
-10.514569917740069
20
63.749722082839938
30
0
40
1.4999999999999971
0
ARC
5
208
100
AcDbEntity
8
0
100
AcDbCircle
10
-7.2282702038400615
20
59.004651837159955
30
0
40
1.9999999999999702
100
AcDbArc
50
70.747522245500178
51
184.68143640030044
0
ARC
5
209
100
AcDbEntity
8
0
100
AcDbCircle
10
7.072183737739941
20
59.004651837159926
30
0
40
2.0000000000000493
100
AcDbArc
50
-4.6814364002995665
51
109.25247777202424
0
ARC
5
210
100
AcDbEntity
8
0
100
AcDbCircle
10
7.9978096106399121
20
58.024804457259961
30
0
40
1.0000000000623346
100
AcDbArc
50
303.09386421576403
51
355.63761467180041
0
LINE
5
211
100
AcDbEntity
8
0
100
AcDbLine
10
18.921956723439912
20
30.577122319459971
30
0
11
29.650506810619959
21
20.572587512719931
31
0
0
ARC
5
212
100
AcDbEntity
8
0
100
AcDbCircle
10
-10.514569917740069
20
63.749722082839938
30
0
40
2.9999999999999889
100
AcDbArc
50
56.431842252500424
51
186.47130869769973
0
ARC
5
213
100
AcDbEntity
8
0
100
AcDbCircle
10
9.9219567681799248
20
55.07247762633996
30
0
40
2.5240000000000098
100
AcDbArc
50
123.09386420129974
51
230.1888405241001
0
LINE
5
214
100
AcDbEntity
8
0
100
AcDbLine
10
-29.884944880240081
20
-18.179446949020015
30
0
11
-23.416919353020109
21
-11.243338758780066
31
0
0
ARC
5
215
100
AcDbEntity
8
0
100
AcDbCircle
10
33.039949803119946
20
45.71681634531997
30
0
40
20.700919395759954
100
AcDbArc
50
180
51
227
0
ARC
5
216
100
AcDbEntity
8
0
100
AcDbCircle
10
8.23938457833993
20
31.976104451639937
30
0
40
1.0000000000000018
100
AcDbArc
50
-17.445495696599849
51
61.480300159099059
0
CIRCLE
5
217
100
AcDbEntity
8
0
100
AcDbCircle
10
-10.078043234280081
20
10.074722082279965
30
0
40
2.1100000000000136
0
CIRCLE
5
218
100
AcDbEntity
8
0
100
AcDbCircle
10
-22.505089538380076
20
-22.352324224280071
30
0
40
1.5000000000000202
0
CIRCLE
5
219
100
AcDbEntity
8
0
100
AcDbCircle
10
-15.328043232100086
20
15.324722082639948
30
0
40
2.1100000000000136
0
CIRCLE
5
220
100
AcDbEntity
8
0
100
AcDbCircle
10
9.9219567681799248
20
55.07247762633996
30
0
40
0.99999999999999845
0
ARC
5
221
100
AcDbEntity
8
0
100
AcDbCircle
10
-4.0780432327800753
20
-25.517287376180082
30
0
40
1.0000000000000142
100
AcDbArc
50
0
51
180
0
CIRCLE
5
222
100
AcDbEntity
8
0
100
AcDbCircle
10
15.171956765999894
20
15.324722082639948
30
0
40
2.1099999999999905
0
ARC
5
223
100
AcDbEntity
8
0
100
AcDbCircle
10
-28.723920880220088
20
-19.262119345520059
30
0
40
1.5875000000000352
100
AcDbArc
50
137.00000000000023
51
227.0000000000002
0
ARC
5
224
100
AcDbEntity
8
0
100
AcDbCircle
10
44.652011143339934
20
-8.5548135110000523
30
0
40
29.248745454062014
100
AcDbArc
50
137
51
157.86091234729997
0
ARC
5
225
100
AcDbEntity
8
0
100
AcDbCircle
10
-12.07804323224007
20
-29.47968737618007
30
0
40
1.0000000000000142
100
AcDbArc
50
0
51
180
0
ARC
5
226
100
AcDbEntity
8
0
100
AcDbCircle
10
-8.0780432337800789
20
-43.767187376180075
30
0
40
1.0000000000000142
100
AcDbArc
50
-180
51
0
0
CIRCLE
5
227
100
AcDbEntity
8
0
100
AcDbCircle
10
9.9219567681799248
20
-9.925277917640063
30
0
40
2.1099999999999905
0
ARC
5
228
100
AcDbEntity
8
0
100
AcDbCircle
10
-8.0780432337800789
20
-27.892187376180093
30
0
40
1.0000000000000142
100
AcDbArc
50
0
51
180
0
CIRCLE
5
229
100
AcDbEntity
8
0
100
AcDbCircle
10
-10.078043234280081
20
-9.9252779176400274
30
0
40
2.1099999999999905
0
CIRCLE
5
230
100
AcDbEntity
8
0
100
AcDbCircle
10
15.171956765999894
20
-15.175277918000081
30
0
40
2.1099999999999905
0
CIRCLE
5
231
100
AcDbEntity
8
0
100
AcDbCircle
10
-15.328043232100104
20
-15.175277918000081
30
0
40
2.1099999999999905
0
CIRCLE
5
232
100
AcDbEntity
8
0
100
AcDbCircle
10
9.9219567681799248
20
10.074722082279965
30
0
40
2.1100000000000136
0
ARC
5
233
100
AcDbEntity
8
0
100
AcDbCircle
10
-169.49511687346012
20
45.716816345319998
30
0
40
160.81000000000012
100
AcDbArc
50
4.3623853282000074
51
4.6814364002999023
0
LINE
5
234
100
AcDbEntity
8
0
100
AcDbLine
10
-29.806593276720079
20
20.572587512719931
30
0
11
-19.078043189540086
21
30.577122319459971
31
0
0
LINE
5
235
100
AcDbEntity
8
0
100
AcDbLine
10
23.260832886919935
20
-11.243338758780101
30
0
11
29.728858414139943
21
-18.179446949020051
31
0
0
LINE
5
236
100
AcDbEntity
8
0
100
AcDbLine
10
-23.416919353020091
20
11.392782920879956
30
0
11
-29.884944880240063
21
18.328891113659953
31
0
0
ARC
5
237
100
AcDbEntity
8
0
100
AcDbCircle
10
169.33903040735999
20
45.716816345319927
30
0
40
160.81000000000003
100
AcDbArc
50
175.31856359970004
51
175.63761467179989
0
LINE
5
238
100
AcDbEntity
8
0
100
AcDbLine
10
1.3361703304399342
20
23.498264064199912
30
0
11
8.6995955679999071
21
30.861689301759956
31
0
0
ARC
5
239
100
AcDbEntity
8
0
100
AcDbCircle
10
-10.078043234280081
20
55.07247762633996
30
0
40
2.5240000000000085
100
AcDbArc
50
-50.188840524100122
51
56.906135792929902
0
ARC
5
240
100
AcDbEntity
8
0
100
AcDbCircle
10
-8.1538960767400681
20
58.024804457259961
30
0
40
1.0000000000008529
100
AcDbArc
50
184.36238532819985
51
236.90613579880036
0
LINE
5
241
100
AcDbEntity
8
0
100
AcDbLine
10
29.728858414139943
20
18.328891113659953
30
0
11
23.260832886919935
21
11.392782920879956
31
0
0
CIRCLE
5
242
100
AcDbEntity
8
0
100
AcDbCircle
10
10.358483451639948
20
63.749722082839938
30
0
40
1.4999999999999971
0
LINE
5
243
100
AcDbEntity
8
0
100
AcDbLine
10
-8.8556820342531495
20
30.861689301606869
30
0
11
-1.4922567965400901
21
23.498264064199912
31
0
0
ARC
5
244
100
AcDbEntity
8
0
100
AcDbCircle
10
-0.078043234320084309
20
79.476913051559933
30
0
40
15.874999999478822
100
AcDbArc
50
236.43184225367725
51
303.56815774750004
0
ARC
5
245
100
AcDbEntity
8
0
100
AcDbCircle
10
10.358483451639948
20
63.749722082839938
30
0
40
2.9999999999999973
100
AcDbArc
50
-6.4713086976997429
51
123.56815774749958
0
CIRCLE
5
246
100
AcDbEntity
8
0
100
AcDbCircle
10
-10.078043234280081
20
55.07247762633996
30
0
40
0.99999999999999845
0
ENDSEC
0
SECTION
2
OBJECTS
0
DICTIONARY
5
C
100
AcDbDictionary
3
ACAD_GROUP
350
D
3
ACAD_MLINESTYLE
350
17
0
DICTIONARY
5
D
100
AcDbDictionary
0
DICTIONARY
5
1A
330
C
100
AcDbDictionary
0
DICTIONARY
5
17
100
AcDbDictionary
0
ENDSEC
0
EOF
