0
SECTION
2
HEADER
9
$INSUNITS
70
4
9
$ACADVER
1
AC1014
9
$HANDSEED
5
FFFF
0
ENDSEC
0
SECTION
2
TABLES
0
TABLE
2
VPORT
5
8
100
AcDbSymbolTable
0
ENDTAB
0
TABLE
2
LTYPE
5
5
100
AcDbSymbolTable
0
LTYPE
5
14
100
AcDbSymbolTableRecord
100
AcDbLinetypeTableRecord
2
BYBLOCK
70
0
0
LTYPE
5
15
100
AcDbSymbolTableRecord
100
AcDbLinetypeTableRecord
2
BYLAYER
70
0
0
ENDTAB
0
TABLE
2
LAYER
5
2
100
AcDbSymbolTable
70
2
0
LAYER
5
50
100
AcDbSymbolTableRecord
100
AcDbLayerTableRecord
2
0
70
0
6
CONTINUOUS
0
ENDTAB
0
TABLE
2
STYLE
5
3
100
AcDbSymbolTable
70
1
0
STYLE
5
11
100
AcDbSymbolTableRecord
100
AcDbTextStyleTableRecord
2
STANDARD
70
0
0
ENDTAB
0
TABLE
2
VIEW
5
6
100
AcDbSymbolTable
70
0
0
ENDTAB
0
TABLE
2
UCS
5
7
100
AcDbSymbolTable
70
0
0
ENDTAB
0
TABLE
2
APPID
5
9
100
AcDbSymbolTable
70
2
0
APPID
5
12
100
AcDbSymbolTableRecord
100
AcDbRegAppTableRecord
2
ACAD
70
0
0
ENDTAB
0
TABLE
2
DIMSTYLE
5
A
100
AcDbSymbolTable
70
1
0
ENDTAB
0
TABLE
2
BLOCK_RECORD
5
1
100
AcDbSymbolTable
70
1
0
BLOCK_RECORD
5
1F
100
AcDbSymbolTableRecord
100
AcDbBlockTableRecord
2
*MODEL_SPACE
0
BLOCK_RECORD
5
1B
100
AcDbSymbolTableRecord
100
AcDbBlockTableRecord
2
*PAPER_SPACE
0
ENDTAB
0
ENDSEC
0
SECTION
2
BLOCKS
0
BLOCK
5
20
100
AcDbEntity
100
AcDbBlockBegin
2
*MODEL_SPACE
0
ENDBLK
5
21
100
AcDbEntity
100
AcDbBlockEnd
0
BLOCK
5
1C
100
AcDbEntity
100
AcDbBlockBegin
2
*PAPER_SPACE
0
ENDBLK
5
1D
100
AcDbEntity
100
AcDbBlockEnd
0
ENDSEC
0
SECTION
2
ENTITIES
0
ARC
5
100
100
AcDbEntity
8
0
100
AcDbCircle
10
-7.7691319049800045
20
56.845455132619939
30
0
40
3.8000000006662571
100
AcDbArc
50
-135.0000000000002
51
2.4631016385011999
0
ARC
5
101
100
AcDbEntity
8
0
100
AcDbCircle
10
37.73997059708001
20
39.096708090179952
30
0
40
29.248745454062139
100
AcDbArc
50
152.15990671519998
51
178.00000000000006
0
CIRCLE
5
102
100
AcDbEntity
8
0
100
AcDbCircle
10
0.0090426885000163479
20
57.180039032919929
30
0
40
2.7999999999999843
0
ARC
5
103
100
AcDbEntity
8
0
100
AcDbCircle
10
0.0090426885000163479
20
57.180039032919929
30
0
40
3.985367453515742
100
AcDbArc
50
-2.4631016369998853
51
182.46310163699988
0
CIRCLE
5
104
100
AcDbEntity
8
0
100
AcDbCircle
10
0.0090426885000163479
20
57.180039032919929
30
0
40
2.1100000000000136
0
CIRCLE
5
105
100
AcDbEntity
8
0
100
AcDbCircle
10
0.0090426885000163479
20
43.056872897799956
30
0
40
2.8999999999999879
0
ARC
5
106
100
AcDbEntity
8
0
100
AcDbCircle
10
-3.3256367559199735
20
-67.701319933860077
30
0
40
1.2699999997902742
100
AcDbArc
50
131.02839416898192
51
220.00520088489952
0
ARC
5
107
100
AcDbEntity
8
0
100
AcDbCircle
10
0.0090426885000341115
20
-71.533592497900088
30
0
40
6.3500000000000245
100
AcDbArc
50
48.971605811500126
51
131.02839418849987
0
ARC
5
108
100
AcDbEntity
8
0
100
AcDbCircle
10
10.944700001800044
20
-59.667658581860074
30
0
40
2.5400000000000027
100
AcDbArc
50
-21.425661583999975
51
45.000000000000064
0
ARC
5
109
100
AcDbEntity
8
0
100
AcDbCircle
10
0.0090426885000341115
20
-55.376370275960063
30
0
40
14.287500000000035
100
AcDbArc
50
151.29396607100003
51
158.57546041710006
0
CIRCLE
5
110
100
AcDbEntity
8
0
100
AcDbCircle
10
0.0090426885000163479
20
32.906996674859947
30
0
40
2.7999999999999843
0
ARC
5
111
100
AcDbEntity
8
0
100
AcDbCircle
10
-13.819638541559968
20
-55.376477598580081
30
0
40
2.539999999999984
100
AcDbArc
50
-45
51
45.003423614850895
0
LINE
5
112
100
AcDbEntity
8
0
100
AcDbLine
10
12.041672692280031
20
-57.172528822320075
30
0
11
12.74075122808005
21
-57.871607358120059
31
0
0
ARC
5
113
100
AcDbEntity
8
0
100
AcDbCircle
10
13.837723916020042
20
-55.376477598580067
30
0
40
2.5400000002722862
100
AcDbArc
50
134.99657638514901
51
224.99999999999997
0
LINE
5
114
100
AcDbEntity
8
0
100
AcDbLine
10
8.5090426861800204
20
40.117474585599943
30
0
11
6.3279476011299485
21
-22.340916735493003
31
0
0
LINE
5
115
100
AcDbEntity
8
0
100
AcDbLine
10
11.876638732280021
20
52.756033679779925
30
0
11
10.474223047948939
21
54.158449364111043
31
0
0
ARC
5
116
100
AcDbEntity
8
0
100
AcDbCircle
10
-37.721885220079997
20
39.096708090179952
30
0
40
29.248745453812397
100
AcDbArc
50
1.9999999998085645
51
27.840093284799917
0
ARC
5
117
100
AcDbEntity
8
0
100
AcDbCircle
10
-5.6474739080199621
20
-49.719177650820072
30
0
40
1.4999999998214131
100
AcDbArc
50
-135.00342361917376
51
44.996576380827371
0
ARC
5
118
100
AcDbEntity
8
0
100
AcDbCircle
10
-7.0616029644399747
20
-48.304879587880059
30
0
40
1.4999999998213756
100
AcDbArc
50
44.996576380826809
51
224.99657639960037
0
LINE
5
119
100
AcDbEntity
8
0
100
AcDbLine
10
6.7268315490600328
20
-50.780577412700076
30
0
11
8.1411296124738683
21
-49.366448356058854
31
0
0
LINE
5
120
100
AcDbEntity
8
0
100
AcDbLine
10
-8.490957311719999
20
40.117474585599943
30
0
11
-6.3098622276399974
21
-22.340916735620063
31
0
0
ARC
5
121
100
AcDbEntity
8
0
100
AcDbCircle
10
0.0090426885000341115
20
-55.376370275960063
30
0
40
14.287500000000041
100
AcDbArc
50
201.42566158400007
51
220.00520088490003
0
ARC
5
122
100
AcDbEntity
8
0
100
AcDbCircle
10
0.0090426885000341115
20
-55.376370275960063
30
0
40
14.287500000000005
100
AcDbArc
50
319.99479911510002
51
338.57433841599999
0
ARC
5
123
100
AcDbEntity
8
0
100
AcDbCircle
10
0.0090426885000341115
20
-67.723592497900086
30
0
40
3.8100000000000001
100
AcDbArc
50
220.00520088490003
51
319.99479911509997
0
LINE
5
124
100
AcDbEntity
8
0
100
AcDbLine
10
2.9274496990200087
20
-70.172878211460073
30
0
11
4.3165244697600222
21
-68.517748504200085
31
0
0
ARC
5
125
100
AcDbEntity
8
0
100
AcDbCircle
10
0.0090426885000341115
20
-55.376370275960063
30
0
40
14.2875
100
AcDbArc
50
21.424539582899968
51
28.706033928999886
0
LINE
5
126
100
AcDbEntity
8
0
100
AcDbLine
10
-4.2984390952999654
20
-68.517748504200085
30
0
11
-2.9093643245599705
21
-70.172878211460073
31
0
0
CIRCLE
5
127
100
AcDbEntity
8
0
100
AcDbCircle
10
0.0090426885000341115
20
-55.376370275960063
30
0
40
3.9999999999999951
0
ARC
5
128
100
AcDbEntity
8
0
100
AcDbCircle
10
7.7872172794400418
20
56.845455132619939
30
0
40
3.8000000000000309
100
AcDbArc
50
177.53689836299955
51
315
0
ARC
5
129
100
AcDbEntity
8
0
100
AcDbCircle
10
-7.0624478141599889
20
-62.447015370100061
30
0
40
1.4999999999999849
100
AcDbArc
50
134.99657639960023
51
314.99657639959963
0
LINE
5
130
100
AcDbEntity
8
0
100
AcDbLine
10
6.0199360281661951
20
-47.245001260821276
30
0
11
4.6056379631599995
21
-48.659130317020065
31
0
0
LINE
5
131
100
AcDbEntity
8
0
100
AcDbLine
10
4.6048353638000137
20
-62.094159321940083
30
0
11
6.0189644204412174
21
-63.508457385353914
31
0
0
LINE
5
132
100
AcDbEntity
8
0
100
AcDbLine
10
-12.023694640439974
20
-53.58031905730008
30
0
11
-12.722642562080434
21
-52.881454658094562
31
0
0
ARC
5
133
100
AcDbEntity
8
0
100
AcDbCircle
10
-10.926614627339969
20
-59.667658581860074
30
0
40
2.5399999993299058
100
AcDbArc
50
135.00000000000028
51
201.42566158399995
0
ARC
5
134
100
AcDbEntity
8
0
100
AcDbCircle
10
0.0090426885000341115
20
-67.723592497900086
30
0
40
6.3499999999999979
100
AcDbArc
50
220.00520088489992
51
319.99479911458633
0
ARC
5
135
100
AcDbEntity
8
0
100
AcDbCircle
10
7.0796879680600311
20
-62.447860593200069
30
0
40
1.5000000000000226
100
AcDbArc
50
-135.00342360040025
51
44.996576399599732
0
LINE
5
136
100
AcDbEntity
8
0
100
AcDbLine
10
-6.0018510220061616
20
-63.507738917718861
30
0
11
-4.5875529595399591
21
-62.093609861520072
31
0
0
LINE
5
137
100
AcDbEntity
8
0
100
AcDbLine
10
12.740727936540527
20
-52.881454658094576
30
0
11
12.041780014900048
21
-53.580319057300059
31
0
0
LINE
5
138
100
AcDbEntity
8
0
100
AcDbLine
10
10.953068984300046
20
-64.561191703080056
30
0
11
4.8730543752400335
21
-71.805735354680081
31
0
0
ARC
5
139
100
AcDbEntity
8
0
100
AcDbCircle
10
5.6662347573800309
20
-49.71985386486007
30
0
40
1.50000000000001
100
AcDbArc
50
134.99657639960009
51
314.99657638082681
0
ARC
5
140
100
AcDbEntity
8
0
100
AcDbCircle
10
57.097001613700044
20
-24.113811167980039
30
0
40
50.80000000000004
100
AcDbArc
50
178.00000000000006
51
208.70603392900003
0
CIRCLE
5
141
100
AcDbEntity
8
0
100
AcDbCircle
10
0.0090426885000163479
20
50.481494101359978
30
0
40
2.9000000000000057
0
ARC
5
142
100
AcDbEntity
8
0
100
AcDbCircle
10
7.0805328203200402
20
-48.305724808440075
30
0
40
1.4999999999999849
100
AcDbArc
50
-45.003423600399742
51
134.99657639960014
0
ARC
5
143
100
AcDbEntity
8
0
100
AcDbCircle
10
5.6655589116400007
20
-61.033562527720065
30
0
40
1.499999999821426
100
AcDbArc
50
44.996576380825751
51
224.99657639960037
0
ARC
5
144
100
AcDbEntity
8
0
100
AcDbCircle
10
3.3437221303800295
20
-67.701319933860063
30
0
40
1.270000000000042
100
AcDbArc
50
-40.005200884900447
51
48.971605811499323
0
LINE
5
145
100
AcDbEntity
8
0
100
AcDbLine
10
-4.5867503601799733
20
-48.658580859140066
30
0
11
-6.0008794165999868
21
-47.244282796200075
31
0
0
LINE
5
146
100
AcDbEntity
8
0
100
AcDbLine
10
-8.1223265097399668
20
-49.365476379560064
30
0
11
-6.7081974558599855
21
-50.77977444250007
31
0
0
ARC
5
147
100
AcDbEntity
8
0
100
AcDbCircle
10
10.94478403516003
20
-51.085296117460068
30
0
40
2.5400000000000196
100
AcDbArc
50
-45.003423600400204
51
21.424539582899875
0
LINE
5
148
100
AcDbEntity
8
0
100
AcDbLine
10
-10.456137673960008
20
54.158449363639953
30
0
11
-11.858553356880556
21
52.756033680066558
31
0
0
LINE
5
149
100
AcDbEntity
8
0
100
AcDbLine
10
-10.934983609839971
20
-64.561191703080084
30
0
11
-4.8549690007799775
21
-71.805735354680081
31
0
0
LINE
5
150
100
AcDbEntity
8
0
100
AcDbLine
10
-6.7087465428999815
20
-59.972162768380073
30
0
11
-8.1230446063138153
21
-61.386291822481283
31
0
0
CIRCLE
5
151
100
AcDbEntity
8
0
100
AcDbCircle
10
0.0090426885000163479
20
32.906996674859947
30
0
40
2.1099999999999834
0
LINE
5
152
100
AcDbEntity
8
0
100
AcDbLine
10
8.1404115159000376
20
-61.387263798980072
30
0
11
6.7262824594800419
21
-59.972965736040067
31
0
0
ARC
5
153
100
AcDbEntity
8
0
100
AcDbCircle
10
-10.926698660699955
20
-51.085296117460082
30
0
40
2.5399999999999952
100
AcDbArc
50
158.57546041709966
51
225.00342360040003
0
ARC
5
154
100
AcDbEntity
8
0
100
AcDbCircle
10
-57.078916239240002
20
-24.113811167980074
30
0
40
50.799999999999997
100
AcDbArc
50
-28.706033929000085
51
1.9999999998947777
0
LINE
5
155
100
AcDbEntity
8
0
100
AcDbLine
10
-12.722665851079981
20
-57.87160735812008
30
0
11
-12.023587315279979
21
-57.172528822320075
31
0
0
ARC
5
156
100
AcDbEntity
8
0
100
AcDbCircle
10
-5.6481497512199796
20
-61.032886313680066
30
0
40
1.4999999998214135
100
AcDbArc
50
-45.0034236191727
51
134.99657639960034
0
ENDSEC
0
SECTION
2
OBJECTS
0
DICTIONARY
5
C
100
AcDbDictionary
3
ACAD_GROUP
350
D
3
ACAD_MLINESTYLE
350
17
0
DICTIONARY
5
D
100
AcDbDictionary
0
DICTIONARY
5
1A
330
C
100
AcDbDictionary
0
DICTIONARY
5
17
100
AcDbDictionary
0
ENDSEC
0
EOF
